Coordinates
version=1
nRows=11
nColumns=46
inDegrees=yes

Units are S.I. units (second, meters, Newtons, ...)
Angles are in degrees.

endheader
time	pelvis_tilt	pelvis_list	pelvis_rotation	pelvis_tx	pelvis_ty	pelvis_tz	bb_angle	bb_tx	bb_ty	bb_tz	hip_flexion_r	hip_adduction_r	hip_rotation_r	knee_angle_r	knee_angle_r_beta	ankle_angle_r	subtalar_angle_r	mtp_angle_r	crank_angle_r	hip_flexion_l	hip_adduction_l	hip_rotation_l	knee_angle_l	knee_angle_l_beta	ankle_angle_l	subtalar_angle_l	mtp_angle_l	crank_angle_l	lumbar_extension	lumbar_bending	lumbar_rotation	arm_flex_r	arm_add_r	arm_rot_r	elbow_flex_r	pro_sup_r	wrist_flex_r	wrist_dev_r	arm_flex_l	arm_add_l	arm_rot_l	elbow_flex_l	pro_sup_l	wrist_flex_l	wrist_dev_l
      0.00000000	    -11.41844527	     -2.00355206	      0.42284687	      0.06964811	      1.10118365	     -0.27488050	      0.00000000	      0.50000000	      0.00000000	      0.25000000	     74.13547809	     -2.34447790	      0.84228394	     81.44937604	      1.42155979	      6.19546286	    -11.45501626	      0.00000000	      0.00000000	     47.78695372	     -7.72576592	      1.08848557	     77.86228329	      1.35895321	      9.40971178	     -6.79664024	      0.00000000	      0.00000000	    -50.19198875	      0.06448551	      3.69875851	     89.10100389	    -11.57515400	     44.30010927	     20.32701158	     28.33802689	      0.00000000	      0.00000000	     89.18279091	     -8.17516594	     45.53764741	     22.33084361	     28.72019985	      0.00000000	      0.00000000
      0.00500000	    -11.45002595	     -2.04928085	      0.44215111	      0.06971552	      1.10111626	     -0.27491198	      0.00000000	      0.50000000	      0.00000000	      0.25000000	     74.17090776	     -2.34015479	      0.80366066	     81.46257579	      1.42179016	      6.17377850	    -11.46541392	      0.00000000	      0.00000000	     47.83109734	     -7.74302560	      1.14232199	     77.87216828	      1.35912573	      9.40574061	     -6.78248480	      0.00000000	      0.00000000	    -50.16012900	      0.09518852	      3.80215370	     89.05857167	    -11.48102572	     42.84305828	     20.23427505	     29.21835498	      0.00000000	      0.00000000	     89.17827898	     -7.71852197	     44.24224391	     21.88190647	     29.53853615	      0.00000000	      0.00000000
      0.01000000	    -11.47825402	     -2.08636798	      0.46477568	      0.06975534	      1.10104819	     -0.27496776	      0.00000000	      0.50000000	      0.00000000	      0.25000000	     74.20761989	     -2.35123628	      0.76107445	     81.48414891	      1.42216669	      6.17997361	    -11.46224515	      0.00000000	      0.00000000	     47.87069769	     -7.74356225	      1.19487032	     77.87778411	      1.35922375	      9.41630117	     -6.79947582	      0.00000000	      0.00000000	    -50.12789853	      0.15453224	      3.83828489	     89.03985780	    -11.24867161	     41.49834637	     19.95661496	     30.44827955	      0.00000000	      0.00000000	     89.16995240	     -7.43594890	     43.07190316	     21.46276573	     30.73534508	      0.00000000	      0.00000000
      0.01500000	    -11.42115196	     -1.94710463	      0.34241784	      0.06987963	      1.10130763	     -0.27491554	      0.00000000	      0.50000000	      0.00000000	      0.25000000	     74.18922676	     -2.29210233	      0.95551393	     81.50419755	      1.42251660	      6.05723860	    -11.33970590	      0.00000000	      0.00000000	     47.68146664	     -7.66759940	      1.03497023	     77.76472328	      1.35725046	      9.52730177	     -6.96817879	      0.00000000	      0.00000000	    -50.20357557	     -0.01041113	      3.70363185	     89.06452363	    -11.64873839	     44.40480534	     20.16886821	     29.67947616	      0.00000000	      0.00000000	     89.17080538	     -8.34972055	     45.99302411	     22.09538763	     30.01920002	      0.00000000	      0.00000000
      0.02000000	    -11.49697760	     -2.08625660	      0.38714689	      0.06991712	      1.10123148	     -0.27518677	      0.00000000	      0.50000000	      0.00000000	      0.25000000	     74.26301465	     -2.33134475	      0.77182412	     81.53752754	      1.42309832	      6.15472602	    -11.36910683	      0.00000000	      0.00000000	     47.81054343	     -7.70768333	      1.20659756	     77.81888820	      1.35819582	      9.44420430	     -7.00258959	      0.00000000	      0.00000000	    -50.09264468	      0.15294139	      3.82995324	     89.01600330	    -11.03860071	     41.00561230	     19.86249186	     30.48322622	      0.00000000	      0.00000000	     89.15283331	     -7.42262333	     43.24962396	     21.23049792	     30.74450276	      0.00000000	      0.00000000
      0.02500000	    -11.47372441	     -2.03209398	      0.33042650	      0.07000323	      1.10129083	     -0.27508054	      0.00000000	      0.50000000	      0.00000000	      0.25000000	     74.25962871	     -2.28446321	      0.85066610	     81.55762170	      1.42344903	      6.10319632	    -11.43077268	      0.00000000	      0.00000000	     47.73706502	     -7.72271400	      1.10870295	     77.77711286	      1.35746670	      9.44783215	     -6.94577793	      0.00000000	      0.00000000	    -50.11847427	      0.06404517	      3.78472736	     89.05914427	    -11.75837394	     44.94721903	     20.28842791	     29.26571225	      0.00000000	      0.00000000	     89.17702411	     -8.22566733	     46.33430107	     21.96392124	     29.51673826	      0.00000000	      0.00000000
      0.03000000	    -11.49462743	     -2.12439118	      0.38412386	      0.06998550	      1.10121138	     -0.27515486	      0.00000000	      0.50000000	      0.00000000	      0.25000000	     74.28360167	     -2.30291123	      0.74426757	     81.57274717	      1.42371302	      6.10945948	    -11.44688687	      0.00000000	      0.00000000	     47.80397459	     -7.75624241	      1.21897889	     77.81157365	      1.35806816	      9.42969209	     -6.93516773	      0.00000000	      0.00000000	    -50.08641583	      0.15093180	      3.91998630	     89.01552623	    -11.61825693	     43.33080970	     20.46605328	     28.42940175	      0.00000000	      0.00000000	     89.17220342	     -7.66598762	     44.84346014	     21.67883629	     28.67190860	      0.00000000	      0.00000000
      0.03500000	    -11.50326027	     -2.07129747	      0.36226309	      0.07004464	      1.10123528	     -0.27517831	      0.00000000	      0.50000000	      0.00000000	      0.25000000	     74.31211087	     -2.30741674	      0.81052350	     81.60523725	      1.42428008	      6.13461804	    -11.37892051	      0.00000000	      0.00000000	     47.77162498	     -7.70879880	      1.17347513	     77.76167060	      1.35719718	      9.38793379	     -7.02082938	      0.00000000	      0.00000000	    -50.08756932	      0.12084726	      3.80525171	     89.00602682	    -11.28229698	     42.63629684	     20.56586090	     26.97667011	      0.00000000	      0.00000000	     89.15347411	     -7.64544823	     44.27553903	     21.87782703	     27.28358679	      0.00000000	      0.00000000
      0.04000000	    -11.49635239	     -2.05798023	      0.30939980	      0.07015934	      1.10128740	     -0.27508575	      0.00000000	      0.50000000	      0.00000000	      0.25000000	     74.30535217	     -2.24984177	      0.83920422	     81.61286876	      1.42441327	      6.11693082	    -11.48010042	      0.00000000	      0.00000000	     47.72332154	     -7.74785487	      1.12033128	     77.72328555	      1.35652724	      9.41007736	     -6.97194877	      0.00000000	      0.00000000	    -50.08201128	      0.07239936	      3.78800651	     89.06564792	    -11.64697976	     45.04611142	     20.21658350	     28.58154903	      0.00000000	      0.00000000	     89.16790686	     -8.27482237	     46.38142322	     22.04359064	     28.87528822	      0.00000000	      0.00000000
      0.04500000	    -11.49513051	     -2.07042149	      0.31417064	      0.07019169	      1.10127544	     -0.27513288	      0.00000000	      0.50000000	      0.00000000	      0.25000000	     74.31201540	     -2.25424410	      0.82479186	     81.63846734	      1.42486005	      6.12109179	    -11.46091287	      0.00000000	      0.00000000	     47.71760228	     -7.74116849	      1.14170979	     77.72086192	      1.35648494	      9.43037900	     -6.98745200	      0.00000000	      0.00000000	    -50.09548209	      0.07916475	      3.86975364	     89.03966184	    -11.54641850	     43.77154352	     20.22689454	     28.90162303	      0.00000000	      0.00000000	     89.16253577	     -7.86974875	     45.12039600	     21.76095139	     29.15325395	      0.00000000	      0.00000000
      0.05000000	    -11.49358107	     -2.08470492	      0.32228653	      0.07026541	      1.10125276	     -0.27516434	      0.00000000	      0.50000000	      0.00000000	      0.25000000	     74.31606609	     -2.26019886	      0.80997997	     81.66506151	      1.42532421	      6.14173187	    -11.45905188	      0.00000000	      0.00000000	     47.70640014	     -7.74303194	      1.16271542	     77.70638619	      1.35623229	      9.43347270	     -6.98446323	      0.00000000	      0.00000000	    -50.07918114	      0.09773879	      3.84097189	     89.04018543	    -11.43469362	     43.70902588	     20.03437721	     29.04757314	      0.00000000	      0.00000000	     89.15851325	     -7.81757182	     44.78281582	     21.63273586	     29.28891609	      0.00000000	      0.00000000
